<svg xmlns="http://www.w3.org/2000/svg" viewBox="0 0 80 53.049" class="h-8 w-auto">
    <path fill="#D1D1D1" d="M26.182 0L15.953 10.228h8.183L34.364 0z"/>
    <path fill="#7B7B7B" d="M34.364 20.46h-8.182L15.953 10.228h8.183z"/>
    <path fill="#D1D1D1" d="M10.228 15.959L0 26.188h8.182l10.229-10.229z"/>
    <path fill="#7B7B7B" d="M18.411 36.415h-8.183L0 26.184l8.182.004z"/>
    <path fill="#D1D1D1" d="M26.182 31.915L15.953 42.143h8.183l10.228-10.228z"/>
    <path fill="#7B7B7B" d="M34.364 52.375h-8.182L15.953 42.143h8.183z"/>
    <path fill="#E2001A" d="M40.092 10.234L50.319.004l10.23 10.227-10.227 10.23z"/>
    <path fill="#F09B9B" d="M42.135 0L31.911 10.228h8.182L50.321 0z"/>
    <path fill="#A60B16" d="M50.321 20.46H42.14L31.911 10.228h8.182z"/>
    <path fill="#E2001A" d="M56.045 26.189L66.274 15.96l10.228 10.228-10.228 10.228z"/>
    <path fill="#F09B9B" d="M58.095 15.959L47.866 26.188h8.182l10.228-10.229z"/>
    <path fill="#A60B16" d="M66.276 36.415h-8.181L47.866 26.184l8.182.004z"/>
    <path fill="#E2001A" d="M24.133 26.187l10.227-10.23 10.228 10.227-10.226 10.229z"/>
    <path fill="#F09B9B" d="M26.182 15.959L15.953 26.188h8.183l10.228-10.229z"/>
    <path fill="#A60B16" d="M34.364 36.415h-8.182L15.953 26.184l8.183.004z"/>
    <path fill="#E2001A" d="M40.09 42.15l10.227-10.23 10.23 10.227-10.227 10.23z"/>
    <path fill="#F09B9B" d="M42.14 31.915L31.911 42.143h8.182l10.228-10.228z"/>
    <path fill="#A60B16" d="M50.321 52.375H42.14L31.911 42.143h8.182z"/>
</svg>
